<svg width="22" height="22" viewBox="0 0 22 22" fill="none" xmlns="http://www.w3.org/2000/svg">
<path fill-rule="evenodd" clip-rule="evenodd" d="M6.41683 0H15.5832C19.1125 0 22 2.8875 22 6.41683V15.5832C22 19.1125 19.1125 22 15.5832 22H6.41683C2.8875 22 0 19.1125 0 15.5832V6.41683C0 2.8875 2.8875 0 6.41683 0ZM20.1668 6.41683C20.1593 3.88848 18.1115 1.84072 15.5832 1.83317H6.41683C3.88848 1.84072 1.84072 3.88848 1.83317 6.41683V15.5832C1.84072 18.1115 3.88848 20.1593 6.41683 20.1668H15.5832C18.1115 20.1593 20.1593 18.1115 20.1668 15.5832V6.41683ZM16.9582 6.41683C16.1988 6.41683 15.5832 5.80122 15.5832 5.04183C15.5832 4.28244 16.1988 3.66683 16.9582 3.66683C17.7176 3.66683 18.3332 4.28244 18.3332 5.04183C18.334 5.40675 18.1893 5.75693 17.9313 6.01499C17.6733 6.273 17.3231 6.41762 16.9582 6.41683ZM11 5.5C7.96243 5.5 5.5 7.96243 5.5 11C5.5 14.0376 7.96243 16.5 11 16.5C14.0376 16.5 16.5 14.0376 16.5 11C16.5 9.54132 15.9205 8.14236 14.8891 7.11091C13.8576 6.07946 12.4587 5.5 11 5.5ZM11 7.33317C12.4831 7.33317 13.8202 8.22658 14.3877 9.59676C14.9553 10.967 14.6415 12.5441 13.5929 13.5929C12.5441 14.6415 10.967 14.9553 9.59676 14.3877C8.22658 13.8202 7.33317 12.4831 7.33317 11C7.33533 8.97575 8.97575 7.33533 11 7.33317Z" fill="#FFC59F"/>
</svg>
